<svg height="512" viewBox="0 0 256 256" width="512" xmlns="http://www.w3.org/2000/svg"><g id="Layer_38"><g><g><g><g><path d="m88.819 195.85c-4.5-.8-8-4.3-8.9-8.7 0-.2-.4-.2-.4 0-.9 4.4-4.4 7.9-8.9 8.7-.2 0-.2.3 0 .4 4.5.8 8 4.3 8.9 8.7 0 .2.4.2.4 0 .9-4.4 4.4-7.9 8.9-8.7.2-.1.2-.4 0-.4z" fill="#fc657e"/></g></g></g><g><g><g><path d="m153.244 4.401c-2.238-.398-3.978-2.138-4.425-4.326 0-.099-.199-.099-.199 0-.448 2.188-2.188 3.928-4.425 4.326-.099 0-.099.149 0 .199 2.238.398 3.978 2.138 4.425 4.326 0 .099.199.099.199 0 .448-2.188 2.188-3.928 4.425-4.326.099-.05.099-.199 0-.199z" fill="#f5c84c"/></g></g></g><g><g><g><circle cx="229.819" cy="120.4" fill="#f5c84c" r="3.4"/></g></g></g><g><g><g><circle cx="56.819" cy="181.4" fill="#70d6f9" r="3.4"/></g></g></g><g><g><g><path d="m249.719 85.5h-2.3v-2.3c0-1.7-1.4-3.2-3.2-3.2s-3.2 1.4-3.2 3.2v2.3h-2.3c-1.7 0-3.2 1.4-3.2 3.2s1.4 3.2 3.2 3.2h2.3v2.3c0 1.7 1.4 3.2 3.2 3.2s3.2-1.4 3.2-3.2v-2.3h2.3c1.7 0 3.2-1.4 3.2-3.2s-1.4-3.2-3.2-3.2z" fill="#87d147"/></g></g></g><g><g><circle cx="141.639" cy="147.685" fill="#70d6f9" r="6.642"/></g><g><path d="m141.64 156.823c-2.342 0-4.683-.892-6.465-2.674-3.564-3.564-3.564-9.364 0-12.929 3.563-3.564 9.363-3.565 12.929 0 3.564 3.565 3.564 9.365 0 12.929-1.783 1.782-4.124 2.674-6.464 2.674zm0-13.279c-1.062 0-2.122.404-2.93 1.211-1.614 1.615-1.614 4.243 0 5.858 1.614 1.613 4.242 1.614 5.858 0 1.614-1.615 1.614-4.243 0-5.858-.807-.807-1.868-1.211-2.928-1.211z"/></g><g><path d="m155.338 138.146c-.64 0-1.279-.244-1.768-.732-6.577-6.578-17.283-6.58-23.862 0-.977.976-2.559.976-3.536 0-.976-.976-.976-2.559 0-3.536 8.528-8.528 22.406-8.526 30.933 0 .977.977.977 2.56 0 3.536-.488.488-1.127.732-1.767.732z"/></g><g><path d="m120.113 130.319c-.64 0-1.28-.244-1.768-.732-.977-.976-.977-2.559 0-3.535 12.843-12.844 33.745-12.845 46.588 0 .977.976.977 2.559 0 3.535-.977.977-2.559.977-3.535 0-10.897-10.896-28.624-10.894-39.518 0-.487.488-1.128.732-1.767.732z"/></g><g><path d="m170.993 122.491c-.64 0-1.279-.244-1.768-.732-7.356-7.356-17.153-11.407-27.586-11.407-10.434 0-20.231 4.051-27.587 11.407-.976.977-2.56.977-3.535 0-.977-.976-.977-2.559 0-3.535 8.3-8.301 19.353-12.872 31.123-12.872 11.769 0 22.821 4.571 31.121 12.872.977.976.977 2.559 0 3.535-.489.488-1.128.732-1.768.732z"/></g></g><g><circle cx="39.16" cy="128.042" fill="#70d6f9" r="33.579"/></g><g><circle cx="196.286" cy="219.921" fill="#fc657e" r="33.579"/></g><g><circle cx="196.286" cy="36.163" fill="#f5c84c" r="33.579"/></g><g><circle cx="39.16" cy="117.905" fill="#f9d0b4" r="9.504"/></g><g><path d="m48.215 137.546h-18.109c-7.565 0-13.754 6.189-13.754 13.754v1.379c5.989 5.548 14.001 8.943 22.809 8.943s16.819-3.396 22.809-8.943v-1.379c-.001-7.565-6.19-13.754-13.755-13.754z" fill="#fc657e"/></g><g><circle cx="196.286" cy="209.784" fill="#f9d0b4" r="9.504"/></g><g><path d="m205.34 229.424h-18.109c-7.565 0-13.754 6.189-13.754 13.754v1.379c5.989 5.548 14.001 8.943 22.809 8.943s16.819-3.396 22.809-8.943v-1.379c-.001-7.564-6.19-13.754-13.755-13.754z" fill="#f5c84c"/></g><g><circle cx="196.286" cy="26.026" fill="#f9d0b4" r="9.504"/></g><g><path d="m205.34 45.667h-18.109c-7.565 0-13.754 6.189-13.754 13.754v1.379c5.989 5.548 14.001 8.943 22.809 8.943s16.819-3.396 22.809-8.943v-1.379c-.001-7.565-6.19-13.754-13.755-13.754z" fill="#70d6f9"/></g><g><path d="m39.16 164.121c-19.894 0-36.079-16.185-36.079-36.079s16.185-36.079 36.079-36.079c19.895 0 36.08 16.185 36.08 36.079s-16.185 36.079-36.08 36.079zm0-67.158c-17.137 0-31.079 13.942-31.079 31.079s13.942 31.079 31.079 31.079 31.08-13.942 31.08-31.079-13.943-31.079-31.08-31.079z"/></g><g><path d="m196.286 256c-19.895 0-36.079-16.185-36.079-36.079 0-19.895 16.185-36.08 36.079-36.08s36.079 16.185 36.079 36.08c0 19.894-16.184 36.079-36.079 36.079zm0-67.159c-17.137 0-31.079 13.942-31.079 31.08s13.942 31.079 31.079 31.079 31.079-13.942 31.079-31.079-13.942-31.08-31.079-31.08z"/></g><g><path d="m196.286 72.243c-19.895 0-36.079-16.185-36.079-36.08 0-19.894 16.185-36.079 36.079-36.079s36.079 16.185 36.079 36.079c0 19.895-16.184 36.08-36.079 36.08zm0-67.159c-17.137 0-31.079 13.942-31.079 31.079s13.942 31.08 31.079 31.08 31.079-13.942 31.079-31.08-13.942-31.079-31.079-31.079z"/></g><g><path d="m78.207 105.797c-.852 0-1.681-.435-2.149-1.219-.708-1.186-.32-2.721.866-3.428l76.99-45.946c1.184-.704 2.72-.321 3.428.866.708 1.186.32 2.721-.865 3.428l-76.99 45.946c-.403.239-.844.353-1.28.353z"/></g><g><path d="m195.969 176.17c-1.381 0-2.5-1.119-2.5-2.5v-91.264c0-1.381 1.119-2.5 2.5-2.5s2.5 1.119 2.5 2.5v91.264c0 1.381-1.119 2.5-2.5 2.5z"/></g><g><path d="m156.637 198.634c-.432 0-.868-.112-1.267-.346l-77.179-45.437c-1.189-.7-1.586-2.233-.886-3.423s2.231-1.586 3.423-.886l77.179 45.437c1.189.7 1.586 2.233.886 3.423-.466.791-1.3 1.232-2.156 1.232z"/></g><g><path d="m39.16 129.908c-6.619 0-12.003-5.385-12.003-12.003s5.385-12.003 12.003-12.003c6.619 0 12.004 5.385 12.004 12.003s-5.385 12.003-12.004 12.003zm0-19.007c-3.862 0-7.003 3.142-7.003 7.003s3.142 7.003 7.003 7.003 7.004-3.142 7.004-7.003-3.142-7.003-7.004-7.003z"/></g><g><path d="m61.969 154.41c-1.381 0-2.5-1.119-2.5-2.5v-.61c0-6.206-5.048-11.254-11.254-11.254h-18.109c-6.206 0-11.254 5.049-11.254 11.254v.592c0 1.381-1.119 2.5-2.5 2.5s-2.5-1.119-2.5-2.5v-.592c0-8.963 7.292-16.254 16.254-16.254h18.109c8.962 0 16.254 7.292 16.254 16.254v.61c0 1.381-1.119 2.5-2.5 2.5z"/></g><g><path d="m196.286 221.787c-6.619 0-12.004-5.385-12.004-12.003s5.385-12.003 12.004-12.003c6.618 0 12.003 5.385 12.003 12.003s-5.385 12.003-12.003 12.003zm0-19.007c-3.862 0-7.004 3.142-7.004 7.003s3.142 7.003 7.004 7.003c3.861 0 7.003-3.142 7.003-7.003s-3.142-7.003-7.003-7.003z"/></g><g><path d="m173.478 246.437c-1.381 0-2.5-1.119-2.5-2.5v-.759c0-8.962 7.291-16.254 16.254-16.254h18.108c8.963 0 16.255 7.292 16.255 16.254v.639c0 1.381-1.119 2.5-2.5 2.5s-2.5-1.119-2.5-2.5v-.639c0-6.206-5.049-11.254-11.255-11.254h-18.108c-6.205 0-11.254 5.048-11.254 11.254v.759c0 1.381-1.12 2.5-2.5 2.5z"/></g><g><path d="m196.286 38.03c-6.619 0-12.004-5.385-12.004-12.003 0-6.619 5.385-12.004 12.004-12.004 6.618 0 12.003 5.385 12.003 12.004 0 6.618-5.385 12.003-12.003 12.003zm0-19.008c-3.862 0-7.004 3.142-7.004 7.004s3.142 7.003 7.004 7.003c3.861 0 7.003-3.142 7.003-7.003s-3.142-7.004-7.003-7.004z"/></g><g><path d="m173.478 62.806c-1.381 0-2.5-1.119-2.5-2.5v-.885c0-8.962 7.291-16.254 16.254-16.254h18.108c8.963 0 16.255 7.292 16.255 16.254v.522c0 1.381-1.119 2.5-2.5 2.5s-2.5-1.119-2.5-2.5v-.522c0-6.206-5.049-11.254-11.255-11.254h-18.108c-6.205 0-11.254 5.048-11.254 11.254v.885c0 1.381-1.12 2.5-2.5 2.5z"/></g></g></g></svg>